#!OML:ASF H:\Dans Jumps\Project 1\Capture day 1\Session 1\subject.ASF
:FULLY-SPECIFIED
:DEGREES
307
root 0.239809 15.6507 -11.406 20.9619 1.27599 -1.28429
lowerback 13.9193 0.782175 -1.11351
upperback -0.822911 1.0857 2.62895
thorax -8.79537 0.645555 3.2231
lowerneck -23.6369 -0.600186 -3.4695
upperneck 14.822 0.411441 -0.368175
head 8.46951 -0.0546251 0.489575
rclavicle -8.15017e-015 -1.66979e-014
rhumerus -16.8562 -15.2934 -78.6672
rradius 26.4831
rwrist 31.3668
rhand -22.8888 -27.9646
rfingers 7.12502
rthumb 3.5505 -57.9148
lclavicle -8.15017e-015 -1.66979e-014
lhumerus -12.5188 4.01935 86.0532
lradius 19.5976
lwrist 10.8694
lhand -29.1043 -8.4839
lfingers 7.12502
lthumb -2.45242 21.4817
rfemur -38.7238 -0.664466 21.9472
rtibia 60.4677
rfoot -35.9884 -23.7897
rtoes -10.985
lfemur -39.577 2.8705 -17.7207
ltibia 61.6208
lfoot -28.508 25.2676
ltoes -23.6306
308
root 0.239207 15.7617 -11.1784 20.313 1.38628 -1.02632
lowerback 13.1163 0.732313 -1.21384
upperback -0.756396 0.993065 2.53502
thorax -8.25801 0.59624 3.19696
lowerneck -23.1868 -0.605372 -3.50557
upperneck 15.3295 0.398296 -0.339297
head 8.56862 -0.0662084 0.504643
rclavicle -6.55989e-015 -2.78299e-015
rhumerus -16.9026 -14.8699 -78.8153
rradius 26.6452
rwrist 31.0953
rhand -22.8797 -27.9026
rfingers 7.12502
rthumb 3.55928 -57.8526
lclavicle -6.55989e-015 -2.78299e-015
lhumerus -12.5679 3.08454 86.2867
lradius 20.108
lwrist 11.4197
lhand -29.0366 -8.41525
lfingers 7.12502
lthumb -2.38707 21.5511
rfemur -36.0717 -0.990083 21.6576
rtibia 58.5775
rfoot -35.5583 -23.4936
rtoes -12.0488
lfemur -37.362 3.05694 -17.9295
ltibia 60.3724
lfoot -27.5462 24.5787
ltoes -24.8339
309
root 0.239489 15.7996 -10.9639 19.6356 1.52779 -0.764713
lowerback 12.1934 0.672718 -1.31561
upperback -0.674261 0.889895 2.43787
thorax -7.63624 0.540119 3.16922
lowerneck -22.6547 -0.612491 -3.53163
upperneck 15.8937 0.374011 -0.300927
head 8.673 -0.082021 0.520027
rclavicle -9.93923e-016 -9.54166e-015
rhumerus -17.0088 -14.511 -78.9522
rradius 26.7672
rwrist 30.7567
rhand -22.8107 -27.7966
rfingers 7.12502
rthumb 3.62588 -57.7456
lclavicle -9.93923e-016 -9.54166e-015
lhumerus -12.6748 2.25889 86.5037
lradius 20.4939
lwrist 11.6739
lhand -29.012 -8.40393
lfingers 7.12502
lthumb -2.36333 21.5627
rfemur -33.6574 -1.32418 21.3488
rtibia 56.9181
rfoot -34.8519 -23.0827
rtoes -13.2995
lfemur -35.5114 3.30238 -18.1178
ltibia 59.5197
lfoot -26.3403 23.5907
ltoes -26.0447
310
root 0.238877 15.9353 -10.7185 18.9436 1.69351 -0.512497
lowerback 11.1376 0.605162 -1.41026
upperback -0.569859 0.780383 2.33695
thorax -6.91658 0.478523 3.13323
lowerneck -22.0257 -0.622327 -3.54948
upperneck 16.4743 0.335406 -0.246896
head 8.76588 -0.102256 0.537635
rclavicle 7.55382e-015 6.36111e-015
rhumerus -17.1532 -14.2099 -79.0892
rradius 26.8552
rwrist 30.431
rhand -22.689 -27.665
rfingers 7.12502
rthumb 3.74344 -57.6119
lclavicle 7.55382e-015 6.36111e-015
lhumerus -12.8299 1.47982 86.7088
lradius 20.8036
lwrist 11.8592
lhand -29.0045 -8.39082
lfingers 7.12502
lthumb -2.35606 21.5759
rfemur -30.8544 -1.66743 21.0428
rtibia 54.8604
rfoot -33.8104 -22.538
rtoes -14.7198
lfemur -33.3469 3.60934 -18.2742
ltibia 58.3737
lfoot -24.9146 22.2799
ltoes -27.1715
311
root 0.238663 16.0807 -10.4649 18.2331 1.87468 -0.277321
lowerback 9.96189 0.531335 -1.49263
upperback -0.435 0.667783 2.23211
thorax -6.09891 0.412776 3.08506
lowerneck -21.2977 -0.62975 -3.54792
upperneck 17.0393 0.287705 -0.187918
head 8.83538 -0.124405 0.552655
rclavicle -2.38542e-015 -9.14409e-015
rhumerus -17.3162 -13.9598 -79.2324
rradius 26.9101
rwrist 30.2098
rhand -22.5262 -27.528
rfingers 7.12502
rthumb 3.90066 -57.4721
lclavicle -2.38542e-015 -9.14409e-015
lhumerus -13.0204 0.694365 86.905
lradius 21.0692
lwrist 12.1547
lhand -28.9848 -8.36017
lfingers 7.12502
lthumb -2.33705 21.6068
rfemur -28.0626 -2.02958 20.7412
rtibia 52.8322
rfoot -32.4231 -21.7911
rtoes -16.2377
lfemur -31.2455 3.97625 -18.3829
ltibia 57.3012
lfoot -23.2602 20.653
ltoes -28.1881
312
root 0.23912 16.2365 -10.2036 17.4939 2.06053 -0.0713571
lowerback 8.68922 0.4538 -1.55511
upperback -0.261801 0.556494 2.12655
thorax -5.18932 0.345015 3.02307
lowerneck -20.4535 -0.634926 -3.53314
upperneck 17.5498 0.231204 -0.121566
head 8.86458 -0.147859 0.5669
rclavicle -3.97569e-015 3.57812e-015
rhumerus -17.4855 -13.7482 -79.3847
rradius 26.934
rwrist 30.1634
rhand -22.3548 -27.3909
rfingers 7.12502
rthumb 4.06617 -57.3319
lclavicle -3.97569e-015 3.57812e-015
lhumerus -13.2406 -0.109348 87.0934
lradius 21.3226
lwrist 12.6539
lhand -28.9421 -8.32336
lfingers 7.12502
lthumb -2.29581 21.644
rfemur -25.2108 -2.41514 20.4519
rtibia 50.6372
rfoot -30.5078 -20.7876
rtoes -17.8051
lfemur -29.1167 4.38638 -18.4259
ltibia 56.0631
lfoot -21.2192 18.6744
ltoes -29.0549
313
root 0.240701 16.4035 -9.93533 16.7159 2.24087 0.0919071
lowerback 7.35609 0.376665 -1.58498
upperback -0.0487905 0.452607 2.02435
thorax -4.20821 0.278608 2.94378
lowerneck -19.4969 -0.637182 -3.51053
upperneck 17.9898 0.168978 -0.047911
head 8.84815 -0.171436 0.581623
rclavicle 5.1684e-015 5.56597e-015
rhumerus -17.6581 -13.5624 -79.5439
rradius 26.9349
rwrist 30.312
rhand -22.1945 -27.2474
rfingers 7.12502
rthumb 4.22093 -57.1853
lclavicle 5.1684e-015 5.56597e-015
lhumerus -13.4891 -0.926129 87.2746
lradius 21.5775
lwrist 13.3556
lhand -28.8633 -8.26807
lfingers 7.12502
lthumb -2.21968 21.7001
rfemur -22.4113 -2.82214 20.1808
rtibia 48.5416
rfoot -28.1939 -19.5544
rtoes -19.3731
lfemur -27.0206 4.80943 -18.3869
ltibia 54.8414
lfoot -18.8694 16.4594
ltoes -29.7864
314
root 0.243582 16.5823 -9.66111 15.8818 2.40294 0.208518
lowerback 6.01601 0.303989 -1.58252
upperback 0.201672 0.359833 1.92923
thorax -3.18886 0.216485 2.85135
lowerneck -18.4311 -0.633 -3.47413
upperneck 18.3541 0.107264 0.0222841
head 8.78454 -0.193093 0.593005
rclavicle 1.39149e-015 -3.57812e-015
rhumerus -17.8448 -13.3644 -79.707
rradius 26.932
rwrist 30.5896
rhand -22.0699 -27.0918
rfingers 7.12502
rthumb 4.3413 -57.0273
lclavicle 1.39149e-015 -3.57812e-015
lhumerus -13.7711 -1.73731 87.4479
lradius 21.8369
lwrist 14.1934
lhand -28.7137 -8.20165
lfingers 7.12502
lthumb -2.07523 21.768
rfemur -19.6743 -3.23279 19.9212
rtibia 46.5615
rfoot -25.467 -18.1071
rtoes -20.8617
lfemur -24.9301 5.19577 -18.2609
ltibia 53.6004
lfoot -16.1368 14.0858
ltoes -30.3783
315
root 0.247919 16.7733 -9.38287 14.9906 2.54393 0.277897
lowerback 4.71432 0.238372 -1.54686
upperback 0.480368 0.279734 1.84455
thorax -2.16601 0.160572 2.74923
lowerneck -17.2808 -0.619282 -3.41678
upperneck 18.658 0.0536299 0.0751954
head 8.68333 -0.210615 0.596151
rclavicle -3.18055e-015 1.11319e-014
rhumerus -18.0473 -13.1357 -79.8705
rradius 26.9383
rwrist 30.9049
rhand -21.9781 -26.9335
rfingers 7.12502
rthumb 4.42992 -56.8672
lclavicle -3.18055e-015 1.11319e-014
lhumerus -14.0829 -2.51599 87.6153
lradius 22.0799
lwrist 15.0391
lhand -28.5205 -8.16214
lfingers 7.12502
lthumb -1.88865 21.8092
rfemur -17.0231 -3.62185 19.6654
rtibia 44.7017
rfoot -22.3342 -16.4672
rtoes -22.1153
lfemur -22.8425 5.48266 -18.0519
ltibia 52.3152
lfoot -12.9716 11.6378
ltoes -30.7596
316
root 0.253669 16.9752 -9.1028 14.0497 2.66569 0.299626
lowerback 3.49183 0.182017 -1.47567
upperback 0.769993 0.213245 1.77174
thorax -1.17943 0.112536 2.63806
lowerneck -16.0687 -0.599638 -3.34747
upperneck 18.9268 0.00528138 0.122361
head 8.55737 -0.225056 0.596134
rclavicle 5.96354e-015 1.07344e-014
rhumerus -18.2873 -12.8573 -80.0301
rradius 26.9785
rwrist 31.1393
rhand -21.9238 -26.7591
rfingers 7.12502
rthumb 4.48238 -56.6917
lclavicle 5.96354e-015 1.07344e-014
lhumerus -14.4373 -3.24644 87.7798
lradius 22.2955
lwrist 15.7852
lhand -28.3194 -8.11632
lfingers 7.12502
lthumb -1.69443 21.8567
rfemur -14.4879 -3.95281 19.4134
rtibia 42.963
rfoot -18.783 -14.7231
rtoes -23.0046
lfemur -20.7688 5.60782 -17.7715
ltibia 50.982
lfoot -9.32755 9.21921
ltoes -30.7786
317
root 0.260509 17.1862 -8.82296 13.0705 2.78248 0.288534
lowerback 2.37562 0.129826 -1.38188
upperback 1.05946 0.151273 1.70964
thorax -0.25398 0.0686781 2.52462
lowerneck -14.8603 -0.577828 -3.27079
upperneck 19.2151 -0.0385314 0.166445
head 8.43722 -0.237519 0.594587
rclavicle -4.47266e-015 2.78299e-015
rhumerus -18.5678 -12.517 -80.1843
rradius 27.063
rwrist 31.2095
rhand -21.8989 -26.571
rfingers 7.12502
rthumb 4.50635 -56.5031
lclavicle -4.47266e-015 2.78299e-015
lhumerus -14.8346 -3.92285 87.942
lradius 22.4748
lwrist 16.3588
lhand -28.1482 -8.07846
lfingers 7.12502
lthumb -1.52907 21.8958
rfemur -12.0923 -4.19839 19.1582
rtibia 41.3523
rfoot -14.8322 -12.9855
rtoes -23.3814
lfemur -18.7323 5.51971 -17.4519
ltibia 49.6196
lfoot -5.22004 6.94477
ltoes -30.3278
